<svg width="20" height="20" viewBox="0 0 20 20" fill="none" xmlns="http://www.w3.org/2000/svg">
<path d="M12.9167 10.8333C15.9082 10.8333 18.3333 10.0871 18.3333 9.16667C18.3333 8.24619 15.9082 7.5 12.9167 7.5C9.92512 7.5 7.5 8.24619 7.5 9.16667C7.5 10.0871 9.92512 10.8333 12.9167 10.8333Z" stroke="#F8F8F8" stroke-width="1.25"/>
<path d="M18.3333 12.9166C18.3333 13.8371 15.9082 14.5833 12.9167 14.5833C9.92508 14.5833 7.5 13.8371 7.5 12.9166" stroke="#F8F8F8" stroke-width="1.25"/>
<path d="M18.3333 9.16663V16.5C18.3333 17.5125 15.9082 18.3333 12.9167 18.3333C9.92508 18.3333 7.5 17.5125 7.5 16.5V9.16663" stroke="#F8F8F8" stroke-width="1.25"/>
<path d="M7.08335 4.99996C10.0749 4.99996 12.5 4.25377 12.5 3.33329C12.5 2.41282 10.0749 1.66663 7.08335 1.66663C4.09181 1.66663 1.66669 2.41282 1.66669 3.33329C1.66669 4.25377 4.09181 4.99996 7.08335 4.99996Z" stroke="#F8F8F8" stroke-width="1.25"/>
<path d="M5.00002 9.16667C3.42351 8.97483 1.97495 8.47875 1.66669 7.5M5.00002 13.3333C3.42351 13.1415 1.97495 12.6454 1.66669 11.6667" stroke="#F8F8F8" stroke-width="1.25" stroke-linecap="round"/>
<path d="M5.00002 17.5C3.42351 17.3082 1.97495 16.8121 1.66669 15.8334V3.33337" stroke="#F8F8F8" stroke-width="1.25" stroke-linecap="round"/>
<path d="M12.5 5.00004V3.33337" stroke="#F8F8F8" stroke-width="1.25" stroke-linecap="round"/>
</svg>
