<svg width="18" height="18" viewBox="0 0 18 18" fill="none" xmlns="http://www.w3.org/2000/svg">
    <path
        d="M11.625 9.75C14.3174 9.75 16.5 9.07843 16.5 8.25C16.5 7.42157 14.3174 6.75 11.625 6.75C8.93261 6.75 6.75 7.42157 6.75 8.25C6.75 9.07843 8.93261 9.75 11.625 9.75Z"
        stroke="#F8F8F8" strokeWidth="1.125" />
    <path d="M16.5 11.625C16.5 12.4534 14.3174 13.125 11.625 13.125C8.93257 13.125 6.75 12.4534 6.75 11.625"
        stroke="#F8F8F8" strokeWidth="1.125" />
    <path d="M16.5 8.25V14.85C16.5 15.7612 14.3174 16.5 11.625 16.5C8.93257 16.5 6.75 15.7612 6.75 14.85V8.25"
        stroke="#F8F8F8" strokeWidth="1.125" />
    <path
        d="M6.375 4.5C9.06739 4.5 11.25 3.82843 11.25 3C11.25 2.17157 9.06739 1.5 6.375 1.5C3.68261 1.5 1.5 2.17157 1.5 3C1.5 3.82843 3.68261 4.5 6.375 4.5Z"
        stroke="#F8F8F8" strokeWidth="1.125" />
    <path d="M4.5 8.25C3.08114 8.07735 1.77743 7.63087 1.5 6.75M4.5 12C3.08114 11.8274 1.77743 11.3809 1.5 10.5"
        stroke="#F8F8F8" strokeWidth="1.125" strokeLinecap="round" />
    <path d="M4.5 15.75C3.08114 15.5774 1.77743 15.1309 1.5 14.25V3" stroke="#F8F8F8" strokeWidth="1.125"
        strokeLinecap="round" />
    <path d="M11.25 4.5V3" stroke="#F8F8F8" strokeWidth="1.125" strokeLinecap="round" />
</svg>