<svg width="120" height="120" viewBox="0 0 120 120" fill="none" xmlns="http://www.w3.org/2000/svg">
    <path
        d="M77.5 65C95.4493 65 110 60.5228 110 55C110 49.4772 95.4493 45 77.5 45C59.5507 45 45 49.4772 45 55C45 60.5228 59.5507 65 77.5 65Z"
        stroke="#15A350" strokeWidth="7.5" />
    <path d="M110 77.5C110 83.023 95.4495 87.5 77.5 87.5C59.5505 87.5 45 83.023 45 77.5" stroke="#15A350"
        strokeWidth="7.5" />
    <path d="M110 55V99C110 105.075 95.4495 110 77.5 110C59.5505 110 45 105.075 45 99V55" stroke="#15A350"
        strokeWidth="7.5" />
    <path
        d="M42.5 30C60.4493 30 75 25.5228 75 20C75 14.4772 60.4493 10 42.5 10C24.5507 10 10 14.4772 10 20C10 25.5228 24.5507 30 42.5 30Z"
        stroke="#15A350" strokeWidth="7.5" />
    <path d="M30 55C20.5409 53.849 11.8496 50.8725 10 45M30 80C20.5409 78.849 11.8496 75.8725 10 70" stroke="#15A350"
        strokeWidth="7.5" strokeLinecap="round" />
    <path d="M30 105C20.5409 103.849 11.8496 100.872 10 95V20" stroke="#15A350" strokeWidth="7.5"
        strokeLinecap="round" />
    <path d="M75 30V20" stroke="#15A350" strokeWidth="7.5" strokeLinecap="round" />
</svg>