<svg width="121" height="120" viewBox="0 0 121 120" fill="none" xmlns="http://www.w3.org/2000/svg">
<path d="M22.8959 97.4332C35.458 109.397 50.4131 104.612 56.3951 99.7662C59.4901 97.2592 60.8816 95.6387 62.0776 94.4422C66.2651 90.5537 65.9961 86.6657 63.2741 83.5552C62.1851 82.3102 55.1986 75.5992 48.4988 68.7197C45.0292 65.2497 42.6364 62.7977 40.5906 60.8237C37.8508 58.0927 35.4581 54.9612 31.8689 55.0507C28.5788 55.0507 26.186 57.9522 23.195 60.9432C19.7542 64.3837 17.213 68.7197 16.3157 72.6082C13.6238 83.9737 17.8112 92.0492 22.8959 97.4332ZM22.8959 97.4332L10.3337 109.995" stroke="#15A350" stroke-width="7.5" stroke-linecap="round"/>
<path d="M97.7666 22.5736C85.2011 10.6039 70.2976 15.4796 64.3141 20.3274C61.2181 22.8356 59.8266 24.4569 58.6296 25.6539C54.4411 29.544 54.7106 33.4341 57.4331 36.5463C57.8246 36.994 58.9791 38.1487 60.6081 39.764M97.7666 22.5736C102.853 27.9599 107.097 36.1273 104.404 47.4985C103.507 51.3885 100.965 55.7265 97.5231 59.169C94.5316 62.1615 92.1381 65.064 88.8471 65.064C85.2566 65.154 83.3936 62.5575 80.6531 59.8255M97.7666 22.5736L110.333 10.0055M60.6081 39.764C63.5106 42.6415 67.9206 46.9806 72.2126 51.3885C75.6831 54.8605 78.6066 57.8505 80.6531 59.8255M60.6081 39.764L52.8901 47.5304M80.6531 59.8255L72.8451 67.448" stroke="#15A350" stroke-width="7.5" stroke-linecap="round"/>
</svg>
