<svg width="20" height="20" viewBox="0 0 20 20" fill="none" xmlns="http://www.w3.org/2000/svg">
<path fill-rule="evenodd" clip-rule="evenodd" d="M3.33331 9.58333C2.18272 9.58333 1.24998 8.65059 1.24998 7.5L1.24998 3.33333C1.24998 2.18274 2.18272 1.25 3.33331 1.25H7.49998C8.65057 1.25 9.58331 2.18274 9.58331 3.33333V7.5C9.58331 8.65059 8.65057 9.58333 7.49998 9.58333H3.33331ZM2.91665 7.5C2.91665 7.73012 3.10319 7.91667 3.33331 7.91667L7.49998 7.91667C7.7301 7.91667 7.91665 7.73012 7.91665 7.5V3.33333C7.91665 3.10322 7.7301 2.91667 7.49998 2.91667L3.33331 2.91667C3.10319 2.91667 2.91665 3.10322 2.91665 3.33333L2.91665 7.5Z" fill="#F8F8F8"/>
<path fill-rule="evenodd" clip-rule="evenodd" d="M6.39668 10.9952C5.6253 10.2238 4.37466 10.2238 3.60328 10.9952L1.41184 13.1866C0.640469 13.958 0.64047 15.2087 1.41184 15.98L3.60328 18.1715C4.37466 18.9428 5.6253 18.9428 6.39668 18.1715L8.58811 15.98C9.35949 15.2087 9.35949 13.958 8.58811 13.1866L6.39668 10.9952ZM4.78179 12.1737C4.90229 12.0532 5.09767 12.0532 5.21817 12.1737L7.4096 14.3651C7.5301 14.4856 7.5301 14.681 7.4096 14.8015L5.21817 16.993C5.09766 17.1135 4.90229 17.1135 4.78179 16.993L2.59036 14.8015C2.46985 14.681 2.46985 14.4856 2.59036 14.3651L4.78179 12.1737Z" fill="#F8F8F8"/>
<path fill-rule="evenodd" clip-rule="evenodd" d="M10.4166 16.6667C10.4166 17.8173 11.3494 18.75 12.5 18.75H16.6666C17.8172 18.75 18.75 17.8173 18.75 16.6667V12.5C18.75 11.3494 17.8172 10.4167 16.6666 10.4167H12.5C11.3494 10.4167 10.4166 11.3494 10.4166 12.5V16.6667ZM12.5 17.0833C12.2699 17.0833 12.0833 16.8968 12.0833 16.6667V12.5C12.0833 12.2699 12.2699 12.0833 12.5 12.0833H16.6666C16.8968 12.0833 17.0833 12.2699 17.0833 12.5V16.6667C17.0833 16.8968 16.8968 17.0833 16.6666 17.0833H12.5Z" fill="#F8F8F8"/>
<path fill-rule="evenodd" clip-rule="evenodd" d="M10.4166 5.41667C10.4166 7.71785 12.2821 9.58333 14.5833 9.58333C16.8845 9.58333 18.75 7.71785 18.75 5.41667C18.75 3.11548 16.8845 1.25 14.5833 1.25C12.2821 1.25 10.4166 3.11548 10.4166 5.41667ZM14.5833 2.91667C15.964 2.91667 17.0833 4.03595 17.0833 5.41667C17.0833 6.79738 15.964 7.91667 14.5833 7.91667C13.2026 7.91667 12.0833 6.79738 12.0833 5.41667C12.0833 4.03596 13.2026 2.91667 14.5833 2.91667Z" fill="#F8F8F8"/>
</svg>
