<svg width="24" height="24" viewBox="0 0 24 24" fill="none" xmlns="http://www.w3.org/2000/svg">
<rect width="24" height="24" rx="6" fill="#15A350"/>
<path d="M12.75 6.75C16.478 6.75 19.5 9.2684 19.5 12.375C19.5 13.9189 18.7535 15.3176 17.545 16.334C17.3638 16.4864 17.25 16.7071 17.25 16.9439V18.75H15.75L15.1546 17.9005C15.0622 17.7687 14.8962 17.7115 14.7403 17.7515C13.4436 18.0849 12.0564 18.0849 10.7597 17.7515C10.6038 17.7115 10.4378 17.7687 10.3454 17.9005L9.75 18.75H8.25V16.9616C8.25 16.715 8.12876 16.4841 7.92573 16.3442C7.11964 15.7883 4.5 14.701 4.5 13.5436V12.375C4.5 11.9312 4.83578 11.5715 5.25 11.5715C5.70499 11.5715 6.07641 11.3947 6.22654 10.9246C6.99414 8.52091 9.6239 6.75 12.75 6.75Z" stroke="#F8F8F8" stroke-width="1.125" stroke-linejoin="round"/>
<path d="M13.875 9C13.401 8.75627 12.8972 8.625 12.375 8.625C11.8528 8.625 11.349 8.75627 10.875 9" stroke="#F8F8F8" stroke-width="1.125" stroke-linecap="round" stroke-linejoin="round"/>
<path d="M8.62476 11.25H8.63149" stroke="#F8F8F8" stroke-width="1.5" stroke-linecap="round" stroke-linejoin="round"/>
<path d="M18.75 9.375C19.125 9 19.5 8.29722 19.5 7.3729C19.5 6.20045 18.4927 5.25 17.25 5.25C16.987 5.25 16.7346 5.29257 16.5 5.3708" stroke="#F8F8F8" stroke-width="1.125" stroke-linecap="round"/>
</svg>