<svg width="20" height="20" viewBox="0 0 20 20" fill="none" xmlns="http://www.w3.org/2000/svg">
<path d="M17.7646 5.9512L17.3532 5.23737C17.0421 4.69751 16.8866 4.42758 16.622 4.31994C16.3573 4.21231 16.058 4.29724 15.4594 4.46711L14.4426 4.75353C14.0604 4.84166 13.6594 4.79166 13.3105 4.61237L13.0297 4.45039C12.7305 4.25873 12.5003 3.97615 12.3729 3.64399L12.0946 2.81284C11.9116 2.26283 11.8201 1.98782 11.6023 1.83052C11.3846 1.67322 11.0952 1.67322 10.5166 1.67322H9.58756C9.00898 1.67322 8.71964 1.67322 8.50181 1.83052C8.28402 1.98782 8.19253 2.26283 8.00955 2.81284L7.73125 3.64399C7.60385 3.97615 7.37369 4.25873 7.07445 4.45039L6.79372 4.61237C6.44476 4.79166 6.0438 4.84166 5.66163 4.75353L4.64477 4.46711C4.04615 4.29724 3.74685 4.21231 3.4822 4.31994C3.21755 4.42758 3.06202 4.69751 2.75094 5.23737L2.33962 5.9512C2.04803 6.45724 1.90223 6.71027 1.93053 6.97962C1.95882 7.24897 2.154 7.46603 2.54436 7.90014L3.40356 8.86071C3.61356 9.12654 3.76265 9.58988 3.76265 10.0065C3.76265 10.4232 3.61361 10.8864 3.40359 11.1523L2.54436 12.1129C2.154 12.547 1.95883 12.764 1.93053 13.0335C1.90223 13.3028 2.04803 13.5558 2.33962 14.0618L2.75093 14.7756C3.062 15.3155 3.21755 15.5855 3.4822 15.693C3.74685 15.8007 4.04616 15.7158 4.64479 15.5459L5.6616 15.2595C6.04384 15.1713 6.44487 15.2214 6.79387 15.4007L7.07456 15.5627C7.37374 15.7544 7.60385 16.0369 7.73123 16.369L8.00955 17.2003C8.19253 17.7503 8.28402 18.0253 8.50181 18.1826C8.71964 18.3399 9.00898 18.3399 9.58756 18.3399H10.5166C11.0952 18.3399 11.3846 18.3399 11.6023 18.1826C11.8201 18.0253 11.9116 17.7503 12.0946 17.2003L12.373 16.369C12.5003 16.0369 12.7304 15.7544 13.0296 15.5627L13.3103 15.4007C13.6593 15.2214 14.0603 15.1713 14.4426 15.2595L15.4594 15.5459C16.058 15.7158 16.3573 15.8007 16.622 15.693C16.8866 15.5855 17.0421 15.3155 17.3532 14.7756L17.7646 14.0618C18.0561 13.5558 18.2019 13.3028 18.1736 13.0335C18.1453 12.764 17.9501 12.547 17.5598 12.1129L16.7006 11.1523C16.4906 10.8864 16.3415 10.4232 16.3415 10.0065C16.3415 9.58988 16.4906 9.12654 16.7006 8.86071L17.5598 7.90014C17.9501 7.46603 18.1453 7.24897 18.1736 6.97962C18.2019 6.71027 18.0561 6.45724 17.7646 5.9512Z" stroke="#F8F8F8" stroke-width="1.25" stroke-linecap="round"/>
<path d="M12.9329 10C12.9329 11.6109 11.6271 12.9167 10.0163 12.9167C8.40542 12.9167 7.09961 11.6109 7.09961 10C7.09961 8.38921 8.40542 7.08337 10.0163 7.08337C11.6271 7.08337 12.9329 8.38921 12.9329 10Z" stroke="#F8F8F8" stroke-width="1.25"/>
</svg>
