<svg width="20" height="20" viewBox="0 0 20 20" fill="none" xmlns="http://www.w3.org/2000/svg">
<path d="M15.8333 8.74996V8.33325C15.8333 5.19059 15.8332 3.61922 14.857 2.64291C13.8806 1.66663 12.3093 1.66663 9.16662 1.66663C6.02403 1.66663 4.45267 1.66668 3.47636 2.64295C2.50008 3.61925 2.50006 5.19056 2.50003 8.33319L2.5 12.0833C2.49998 14.8228 2.49997 16.1926 3.25657 17.1145C3.3951 17.2834 3.54988 17.4381 3.71869 17.5767C4.64064 18.3333 6.01041 18.3333 8.74995 18.3333" stroke="#F8F8F8" stroke-width="1.25" stroke-linecap="round" stroke-linejoin="round"/>
<path d="M5.83331 5.83337H12.5M5.83331 9.16671H9.16665" stroke="#F8F8F8" stroke-width="1.25" stroke-linecap="round" stroke-linejoin="round"/>
<path d="M15 15.4167L13.75 14.9584V12.9167M10 14.5834C10 16.6545 11.6789 18.3334 13.75 18.3334C15.8211 18.3334 17.5 16.6545 17.5 14.5834C17.5 12.5123 15.8211 10.8334 13.75 10.8334C11.6789 10.8334 10 12.5123 10 14.5834Z" stroke="#F8F8F8" stroke-width="1.25" stroke-linecap="round" stroke-linejoin="round"/>
</svg>
