<svg width="93" height="14" viewBox="0 0 93 14" fill="none" xmlns="http://www.w3.org/2000/svg">
<path d="M8.40554 4.00781C8.34588 3.44957 8.09446 3.01491 7.65128 2.70384C7.21236 2.39276 6.64134 2.23722 5.93821 2.23722C5.44389 2.23722 5.01989 2.31179 4.66619 2.46094C4.3125 2.61008 4.0419 2.8125 3.8544 3.06818C3.6669 3.32386 3.57102 3.61577 3.56676 3.94389C3.56676 4.21662 3.62855 4.45312 3.75213 4.65341C3.87997 4.85369 4.05256 5.02415 4.26989 5.16477C4.48722 5.30114 4.72798 5.41619 4.99219 5.50994C5.25639 5.60369 5.52273 5.68253 5.79119 5.74645L7.01847 6.05327C7.51278 6.16832 7.98793 6.32386 8.44389 6.51989C8.90412 6.71591 9.31534 6.96307 9.67756 7.26136C10.044 7.55966 10.3338 7.91974 10.5469 8.34162C10.7599 8.76349 10.8665 9.25781 10.8665 9.82457C10.8665 10.5916 10.6705 11.267 10.2784 11.8509C9.88636 12.4304 9.3196 12.8842 8.57812 13.2124C7.84091 13.5362 6.94815 13.6982 5.89986 13.6982C4.88139 13.6982 3.99716 13.5405 3.24716 13.2251C2.50142 12.9098 1.91761 12.4496 1.49574 11.8445C1.07813 11.2393 0.852273 10.5021 0.818182 9.63281H3.15128C3.18537 10.0888 3.32599 10.468 3.57315 10.7706C3.82031 11.0732 4.14205 11.299 4.53835 11.4482C4.93892 11.5973 5.38636 11.6719 5.88068 11.6719C6.39631 11.6719 6.84801 11.5952 7.2358 11.4418C7.62784 11.2841 7.93466 11.0668 8.15625 10.7898C8.37784 10.5085 8.49077 10.1804 8.49503 9.8054C8.49077 9.46449 8.39063 9.18324 8.1946 8.96165C7.99858 8.7358 7.72372 8.5483 7.37003 8.39915C7.0206 8.24574 6.61151 8.10937 6.14276 7.99006L4.65341 7.60653C3.57528 7.32955 2.72301 6.9098 2.09659 6.3473C1.47443 5.78054 1.16335 5.02841 1.16335 4.09091C1.16335 3.3196 1.37216 2.64418 1.78977 2.06463C2.21165 1.48509 2.7848 1.03551 3.50923 0.715908C4.23366 0.392045 5.05398 0.230113 5.97017 0.230113C6.89915 0.230113 7.71307 0.392045 8.41193 0.715908C9.11506 1.03551 9.6669 1.48082 10.0675 2.05185C10.468 2.61861 10.6747 3.2706 10.6875 4.00781H8.40554ZM17.7811 3.68182V5.47159H12.1369V3.68182H17.7811ZM13.5304 1.32955H15.8443V10.5469C15.8443 10.858 15.8912 11.0966 15.9849 11.2628C16.0829 11.4247 16.2108 11.5355 16.3684 11.5952C16.5261 11.6548 16.7008 11.6847 16.8926 11.6847C17.0375 11.6847 17.1696 11.674 17.2889 11.6527C17.4125 11.6314 17.5062 11.6122 17.5701 11.5952L17.9601 13.4041C17.8365 13.4467 17.6596 13.4936 17.4295 13.5447C17.2037 13.5959 16.9267 13.6257 16.5985 13.6342C16.019 13.6513 15.497 13.5639 15.0325 13.3722C14.568 13.1761 14.1994 12.8736 13.9267 12.4645C13.6582 12.0554 13.5261 11.544 13.5304 10.9304V1.32955ZM23.9574 13.6918C22.973 13.6918 22.1229 13.4872 21.407 13.0781C20.6953 12.6648 20.1477 12.081 19.7642 11.3267C19.3807 10.5682 19.1889 9.67543 19.1889 8.64844C19.1889 7.63849 19.3807 6.75213 19.7642 5.98935C20.152 5.2223 20.6932 4.62571 21.3878 4.19957C22.0824 3.76918 22.8984 3.55398 23.8359 3.55398C24.4411 3.55398 25.0121 3.65199 25.549 3.84801C26.0902 4.03977 26.5675 4.33807 26.9808 4.7429C27.3984 5.14773 27.7266 5.66335 27.9652 6.28977C28.2038 6.91193 28.3232 7.65341 28.3232 8.5142V9.22372H20.2756V7.66406H26.1051C26.1009 7.22088 26.005 6.8267 25.8175 6.48153C25.63 6.1321 25.3679 5.85724 25.0312 5.65696C24.6989 5.45668 24.3111 5.35653 23.8679 5.35653C23.3949 5.35653 22.9794 5.47159 22.6214 5.7017C22.2635 5.92756 21.9844 6.22585 21.7841 6.59659C21.5881 6.96307 21.4879 7.36577 21.4837 7.80469V9.16619C21.4837 9.73722 21.5881 10.2273 21.7969 10.6364C22.0057 11.0412 22.2976 11.3523 22.6726 11.5696C23.0476 11.7827 23.4865 11.8892 23.9893 11.8892C24.326 11.8892 24.6307 11.8423 24.9034 11.7486C25.1761 11.6506 25.4126 11.5078 25.6129 11.3203C25.8132 11.1328 25.9645 10.9006 26.0668 10.6236L28.2273 10.8665C28.0909 11.4375 27.831 11.9361 27.4474 12.3622C27.0682 12.7841 26.5824 13.1122 25.9901 13.3466C25.3977 13.5767 24.7202 13.6918 23.9574 13.6918ZM32.5946 0.409091V13.5H30.2807V0.409091H32.5946ZM37.288 0.409091V13.5H34.9741V0.409091H37.288ZM42.4927 13.6982C41.8706 13.6982 41.3102 13.5874 40.8116 13.3658C40.3173 13.1399 39.9252 12.8075 39.6355 12.3686C39.35 11.9297 39.2072 11.3885 39.2072 10.745C39.2072 10.1911 39.3095 9.73295 39.514 9.37074C39.7186 9.00852 39.9977 8.71875 40.3514 8.50142C40.7051 8.28409 41.1035 8.12003 41.5467 8.00923C41.9941 7.89418 42.4565 7.81108 42.9338 7.75994C43.5091 7.70028 43.9757 7.64702 44.3336 7.60014C44.6916 7.54901 44.9515 7.4723 45.1135 7.37003C45.2797 7.26349 45.3627 7.09943 45.3627 6.87784V6.83949C45.3627 6.35795 45.22 5.98509 44.9345 5.72088C44.649 5.45668 44.2377 5.32457 43.7008 5.32457C43.1341 5.32457 42.6845 5.44815 42.3521 5.69531C42.024 5.94247 41.8024 6.23437 41.6873 6.57102L39.5268 6.2642C39.6973 5.66761 39.9785 5.16903 40.3706 4.76847C40.7626 4.36364 41.242 4.06108 41.8088 3.8608C42.3755 3.65625 43.002 3.55398 43.688 3.55398C44.161 3.55398 44.6319 3.60938 45.1007 3.72017C45.5694 3.83097 45.9977 4.0142 46.3855 4.26989C46.7733 4.52131 47.0843 4.86435 47.3187 5.29901C47.5574 5.73366 47.6767 6.27699 47.6767 6.92898V13.5H45.4522V12.1513H45.3755C45.2349 12.424 45.0368 12.6797 44.7811 12.9183C44.5297 13.1527 44.2122 13.3423 43.8287 13.4872C43.4494 13.6278 43.0041 13.6982 42.4927 13.6982ZM43.0936 11.9979C43.5581 11.9979 43.9608 11.9062 44.3017 11.723C44.6426 11.5355 44.9047 11.2884 45.0879 10.9815C45.2754 10.6747 45.3691 10.3402 45.3691 9.97798V8.82102C45.2967 8.88068 45.1731 8.93608 44.9984 8.98722C44.8279 9.03835 44.6362 9.0831 44.4231 9.12145C44.21 9.1598 43.9991 9.19389 43.7903 9.22372C43.5815 9.25355 43.4004 9.27912 43.247 9.30043C42.9018 9.3473 42.5929 9.42401 42.3201 9.53054C42.0474 9.63707 41.8322 9.78622 41.6745 9.97798C41.5169 10.1655 41.438 10.4084 41.438 10.7067C41.438 11.1328 41.5936 11.4545 41.9047 11.6719C42.2157 11.8892 42.612 11.9979 43.0936 11.9979ZM50.0034 13.5V3.68182H52.247V5.31818H52.3493C52.5282 4.75142 52.835 4.31463 53.2697 4.00781C53.7086 3.69673 54.2093 3.54119 54.7718 3.54119C54.8997 3.54119 55.0424 3.54758 55.2001 3.56037C55.362 3.56889 55.4963 3.58381 55.6028 3.60511V5.73366C55.5048 5.69957 55.3493 5.66974 55.1362 5.64418C54.9274 5.61435 54.725 5.59943 54.5289 5.59943C54.1071 5.59943 53.7278 5.69105 53.3912 5.87429C53.0588 6.05327 52.7967 6.30256 52.6049 6.62216C52.4132 6.94176 52.3173 7.31037 52.3173 7.72798V13.5H50.0034ZM59.454 0.409091V13.5H57.1401V0.409091H59.454ZM66.18 13.6918C65.1957 13.6918 64.3455 13.4872 63.6296 13.0781C62.918 12.6648 62.3704 12.081 61.9869 11.3267C61.6033 10.5682 61.4116 9.67543 61.4116 8.64844C61.4116 7.63849 61.6033 6.75213 61.9869 5.98935C62.3746 5.2223 62.9158 4.62571 63.6104 4.19957C64.305 3.76918 65.1211 3.55398 66.0586 3.55398C66.6637 3.55398 67.2347 3.65199 67.7717 3.84801C68.3129 4.03977 68.7901 4.33807 69.2035 4.7429C69.6211 5.14773 69.9492 5.66335 70.1879 6.28977C70.4265 6.91193 70.5458 7.65341 70.5458 8.5142V9.22372H62.4982V7.66406H68.3278C68.3235 7.22088 68.2276 6.8267 68.0401 6.48153C67.8526 6.1321 67.5906 5.85724 67.2539 5.65696C66.9215 5.45668 66.5337 5.35653 66.0906 5.35653C65.6175 5.35653 65.2021 5.47159 64.8441 5.7017C64.4862 5.92756 64.207 6.22585 64.0067 6.59659C63.8107 6.96307 63.7106 7.36577 63.7063 7.80469V9.16619C63.7063 9.73722 63.8107 10.2273 64.0195 10.6364C64.2283 11.0412 64.5202 11.3523 64.8952 11.5696C65.2702 11.7827 65.7092 11.8892 66.212 11.8892C66.5487 11.8892 66.8533 11.8423 67.1261 11.7486C67.3988 11.6506 67.6353 11.5078 67.8356 11.3203C68.0359 11.1328 68.1871 10.9006 68.2894 10.6236L70.4499 10.8665C70.3136 11.4375 70.0536 11.9361 69.6701 12.3622C69.2908 12.7841 68.805 13.1122 68.2127 13.3466C67.6204 13.5767 66.9428 13.6918 66.18 13.6918ZM74.8173 7.74716V13.5H72.5034V3.68182H74.715V5.35014H74.8301C75.0559 4.80043 75.416 4.36364 75.9103 4.03977C76.4089 3.71591 77.0247 3.55398 77.7576 3.55398C78.4352 3.55398 79.0254 3.69886 79.5282 3.98864C80.0353 4.27841 80.4274 4.69815 80.7044 5.24787C80.9856 5.79758 81.1241 6.46449 81.1199 7.24858V13.5H78.8059V7.60653C78.8059 6.95028 78.6355 6.43679 78.2946 6.06605C77.9579 5.69531 77.4913 5.50994 76.8947 5.50994C76.4899 5.50994 76.1298 5.59943 75.8145 5.77841C75.5034 5.95312 75.2583 6.20668 75.0794 6.53906C74.9047 6.87145 74.8173 7.27415 74.8173 7.74716ZM87.1156 13.6726C86.3443 13.6726 85.6539 13.4744 85.0446 13.0781C84.4352 12.6818 83.9537 12.1065 83.6 11.3523C83.2463 10.598 83.0694 9.68182 83.0694 8.60369C83.0694 7.51278 83.2484 6.59233 83.6064 5.84233C83.9686 5.08807 84.4565 4.51918 85.0701 4.13565C85.6838 3.74787 86.3677 3.55398 87.122 3.55398C87.6973 3.55398 88.1703 3.65199 88.541 3.84801C88.9118 4.03977 89.2058 4.27202 89.4231 4.54474C89.6404 4.81321 89.8088 5.06676 89.9281 5.3054H90.024V0.409091H92.3443V13.5H90.0687V11.9531H89.9281C89.8088 12.1918 89.6362 12.4453 89.4103 12.7138C89.1845 12.978 88.8862 13.2038 88.5154 13.3913C88.1447 13.5788 87.6781 13.6726 87.1156 13.6726ZM87.7612 11.7741C88.2512 11.7741 88.6689 11.642 89.014 11.3778C89.3592 11.1094 89.6213 10.7365 89.8002 10.2592C89.9792 9.78196 90.0687 9.22585 90.0687 8.59091C90.0687 7.95597 89.9792 7.40412 89.8002 6.93537C89.6255 6.46662 89.3656 6.10227 89.0204 5.84233C88.6795 5.58239 88.2598 5.45241 87.7612 5.45241C87.2456 5.45241 86.8152 5.58665 86.47 5.85511C86.1248 6.12358 85.8649 6.49432 85.6902 6.96733C85.5154 7.44034 85.4281 7.98153 85.4281 8.59091C85.4281 9.20455 85.5154 9.75213 85.6902 10.2337C85.8691 10.7109 86.1312 11.0881 86.4764 11.3651C86.8258 11.6378 87.2541 11.7741 87.7612 11.7741Z" fill="#F8F8F8"/>
</svg>
